Coordinates
version=1
nRows=23
nColumns=28
inDegrees=yes

Units are S.I. units (second, meters, Newtons, ...)
Angles are in degrees.

endheader
time	pelvis_tilt	pelvis_list	pelvis_rotation	pelvis_tx	pelvis_ty	pelvis_tz	hip_flexion_r	hip_adduction_r	hip_rotation_r	knee_angle_r	ankle_angle_r	subtalar_angle_r	mtp_angle_r	hip_flexion_l	hip_adduction_l	hip_rotation_l	knee_angle_l	socket_flexion	socket_adduction	socket_rotation	socket_tx	socket_ty	socket_tz	foot_flex	lumbar_extension	lumbar_bending	lumbar_rotation
      0.96666667	      7.93258953	      2.96244462	     -4.98728629	      0.39574837	      1.03170432	      0.28211111	      1.02375659	      0.95965908	      0.54822523	    -24.09607573	     10.79575998	     -1.14865504	     34.12334476	     -1.69834705	     -0.01342781	     -4.47220555	    -52.71898901	      0.00000000	      0.00000000	      0.00000000	      0.00000000	      0.01231313	      0.00000000	      5.85701269	    -15.13525167	     -3.16415246	     10.38979279
      0.97083333	      7.91700502	      3.09813369	     -5.22274588	      0.40016569	      1.03264453	      0.28259185	      0.64310172	      0.74656566	      0.62004241	    -23.79357081	     10.67153799	     -0.88154451	     34.20031123	     -1.12684949	      0.10955206	     -4.38941665	    -52.36014037	      0.00000000	      0.00000000	      0.00000000	      0.00000000	      0.01237153	      0.00000000	      5.84608470	    -15.12845172	     -3.39248523	     10.50084225
      0.97500000	      7.90045139	      3.21156818	     -5.47833999	      0.40463129	      1.03352330	      0.28309730	      0.27463085	      0.54391067	      0.64082009	    -23.51531422	     10.58435377	     -0.62168118	     34.27585206	     -0.58076104	      0.21081302	     -4.33858072	    -51.94928987	      0.00000000	      0.00000000	      0.00000000	      0.00000000	      0.01239834	      0.00000000	      5.85473610	    -15.10706909	     -3.58812218	     10.63717002
      0.97916667	      7.87534690	      3.32389099	     -5.73596179	      0.40908238	      1.03436771	      0.28354916	     -0.08127477	      0.33767656	      0.67582445	    -23.23429001	     10.49809850	     -0.33606202	     34.35462760	     -0.04169878	      0.32062294	     -4.26860260	    -51.49034096	      0.00000000	      0.00000000	      0.00000000	      0.00000000	      0.01239800	      0.00000000	      5.85244171	    -15.07517597	     -3.76929227	     10.79771736
      0.98333333	      7.89550712	      3.30856323	     -5.99206580	      0.41305126	      1.03511031	      0.28399696	     -0.34481085	      0.26853362	      0.61762310	    -23.22018045	     10.48729000	     -0.28742796	     34.35855961	      0.51075498	      0.28182803	     -4.20851609	    -51.12590208	      0.00000000	      0.00000000	      0.00000000	      0.00000000	      0.01236620	      0.00000000	      5.87863141	    -15.20893299	     -3.80639114	     10.82597571
      0.98750000	      7.82068006	      3.48062212	     -6.24335121	      0.41784337	      1.03589308	      0.28447545	     -0.75764004	      0.00986424	      0.74710228	    -22.73715665	     10.35954676	      0.12136564	     34.44524865	      1.01406697	      0.47812766	     -4.06327149	    -50.46752568	      0.00000000	      0.00000000	      0.00000000	      0.00000000	      0.01232244	      0.00000000	      5.85151247	    -15.03162708	     -4.07704560	     11.05267340
      0.99166667	      7.83655325	      3.45951768	     -6.50317659	      0.42168693	      1.03657988	      0.28491503	     -1.00678709	     -0.05779088	      0.68970897	    -22.71692628	     10.34353930	      0.18160720	     34.45079282	      1.57868622	      0.43481947	     -3.99673864	    -50.06614864	      0.00000000	      0.00000000	      0.00000000	      0.00000000	      0.01244840	      0.00000000	      5.87491806	    -15.18114261	     -4.11373744	     11.09055829
      0.99583333	      7.73406254	      3.62030711	     -6.95872712	      0.42657367	      1.03712289	      0.28553794	     -1.24405370	     -0.38804698	      0.67407466	    -22.45278294	     10.07904774	      1.68176385	     35.14178692	      1.99706875	      0.62663831	     -4.03914355	    -49.22412583	      0.00000000	      0.00000000	      0.00000000	      0.00000000	      0.01210215	      0.00000000	      5.78728327	    -14.90903081	     -4.44905085	     12.10861328
      1.00000000	      7.74684831	      3.60047776	     -7.19317610	      0.43036536	      1.03772074	      0.28594095	     -1.48833799	     -0.45310261	      0.62586597	    -22.43626689	     10.09276141	      1.70455363	     35.14676854	      2.56390421	      0.58130923	     -3.94073314	    -48.77841829	      0.00000000	      0.00000000	      0.00000000	      0.00000000	      0.01231309	      0.00000000	      5.82212956	    -15.06370873	     -4.48804914	     12.10854003
      1.00416667	      7.62125504	      3.72846821	     -7.39996035	      0.43527950	      1.03826462	      0.28631498	     -1.86772579	     -0.66033760	      0.73498424	    -21.93765799	     10.04068658	      2.06401646	     35.30622199	      3.02034692	      0.75059926	     -3.67526315	    -47.89410465	      0.00000000	      0.00000000	      0.00000000	      0.00000000	      0.01197915	      0.00000000	      5.69005198	    -14.81810523	     -4.67693327	     12.22845200
      1.00833333	      7.56489594	      3.74575526	     -7.63988384	      0.43951361	      1.03873110	      0.28667832	     -2.13362496	     -0.76040228	      0.77428629	    -21.76496449	      9.97934341	      2.26681088	     35.38670402	      3.50977199	      0.78582994	     -3.46002387	    -47.18085677	      0.00000000	      0.00000000	      0.00000000	      0.00000000	      0.01186658	      0.00000000	      5.71773033	    -14.79302864	     -4.74157860	     12.32318995
      1.01250000	      7.47801503	      3.75790520	     -7.88011917	      0.44390602	      1.03915272	      0.28708059	     -2.42395102	     -0.85017205	      0.81689707	    -21.48001380	      9.88852666	      2.54337505	     35.50642581	      3.98687759	      0.80414259	     -3.26608258	    -46.39315450	      0.00000000	      0.00000000	      0.00000000	      0.00000000	      0.01167525	      0.00000000	      5.64774889	    -14.70250182	     -4.81376224	     12.47697452
      1.01666667	      7.40514551	      3.74556926	     -8.11588525	      0.44815189	      1.03953103	      0.28744918	     -2.68955126	     -0.91835464	      0.86815859	    -21.26953308	      9.80469940	      2.78800117	     35.61625252	      4.46385767	      0.79496820	     -3.05143462	    -45.61226097	      0.00000000	      0.00000000	      0.00000000	      0.00000000	      0.01156976	      0.00000000	      5.61705120	    -14.64859000	     -4.85406956	     12.62790278
      1.02083333	      7.31880156	      3.72507899	     -8.34700934	      0.45240070	      1.03983544	      0.28785524	     -2.95487249	     -0.97041118	      0.91566026	    -21.03588057	      9.72455137	      3.03028312	     35.72724592	      4.93900781	      0.76865249	     -2.83971476	    -44.80152835	      0.00000000	      0.00000000	      0.00000000	      0.00000000	      0.01141940	      0.00000000	      5.56141845	    -14.58524817	     -4.88484137	     12.78776321
      1.02500000	      7.21617458	      3.68579377	     -8.57340027	      0.45668963	      1.04007622	      0.28822216	     -3.21266890	     -1.00124425	      0.97335158	    -20.78637939	      9.63682087	      3.29052106	     35.85309651	      5.39902200	      0.72350057	     -2.60798107	    -43.93762425	      0.00000000	      0.00000000	      0.00000000	      0.00000000	      0.01117384	      0.00000000	      5.48766118	    -14.49745188	     -4.89467306	     12.96986570
      1.02916667	      7.08131839	      3.61121992	     -8.79116951	      0.46097740	      1.04024479	      0.28859987	     -3.45816758	     -0.98771763	      1.03087548	    -20.49097011	      9.51731031	      3.62033612	     36.04745249	      5.88066558	      0.62225816	     -2.40003262	    -43.05828155	      0.00000000	      0.00000000	      0.00000000	      0.00000000	      0.01090295	      0.00000000	      5.36647476	    -14.37082444	     -4.87162521	     13.22669892
      1.03333333	      6.98043417	      3.55281676	     -9.00045266	      0.46507155	      1.04035133	      0.28891271	     -3.67140683	     -0.99317218	      1.09648329	    -20.33488933	      9.45810597	      3.79759955	     36.17231763	      6.34122209	      0.56050966	     -2.11480748	    -42.18105655	      0.00000000	      0.00000000	      0.00000000	      0.00000000	      0.01068798	      0.00000000	      5.34698759	    -14.31785258	     -4.85559693	     13.36695198
      1.03750000	      6.87695159	      3.48995244	     -9.18961538	      0.46908161	      1.04040556	      0.28925891	     -3.88078010	     -0.98315906	      1.16579953	    -20.17972590	      9.41425671	      3.93650438	     36.26002980	      6.80526425	      0.48171126	     -1.80987699	    -41.28579231	      0.00000000	      0.00000000	      0.00000000	      0.00000000	      0.01052079	      0.00000000	      5.31307979	    -14.28469394	     -4.83691368	     13.47220728
      1.04166667	      6.69090022	      3.36757514	     -9.33836581	      0.47339904	      1.04037885	      0.28958727	     -4.11412038	     -0.89010514	      1.23312833	    -19.84057522	      9.32218595	      4.16274010	     36.41703077	      7.29168212	      0.31052869	     -1.54557325	    -40.32355023	      0.00000000	      0.00000000	      0.00000000	      0.00000000	      0.01015223	      0.00000000	      5.13059495	    -14.11482053	     -4.73308758	     13.67061916
      1.04583333	      6.56243931	      3.26763741	     -9.51545954	      0.47735811	      1.04027663	      0.28986934	     -4.29608964	     -0.83257437	      1.31700721	    -19.69793696	      9.26602577	      4.27540838	     36.51424650	      7.76170107	      0.19150909	     -1.19625806	    -39.39542176	      0.00000000	      0.00000000	      0.00000000	      0.00000000	      0.00990004	      0.00000000	      5.10372109	    -14.05475617	     -4.66189434	     13.77732143
      1.05000000	      6.38914406	      3.13612146	     -9.66010257	      0.48141227	      1.04013821	      0.29018942	     -4.48456961	     -0.72510372	      1.38622538	    -19.45823062	      9.21086378	      4.38970716	     36.61753679	      8.24929037	      0.01566527	     -0.86312776	    -38.43680782	      0.00000000	      0.00000000	      0.00000000	      0.00000000	      0.00962505	      0.00000000	      4.97915088	    -13.94761480	     -4.56000580	     13.89542615
      1.05416667	      6.23012790	      3.01440165	     -9.77223926	      0.48531980	      1.03992768	      0.29044910	     -4.65297330	     -0.62165926	      1.47113737	    -19.29758949	      9.16435681	      4.46654976	     36.69363239	      8.74412541	     -0.15232441	     -0.51923541	    -37.48808198	      0.00000000	      0.00000000	      0.00000000	      0.00000000	      0.00942392	      0.00000000	      4.91100028	    -13.88009140	     -4.45043429	     13.98192903
      1.05833333	      6.04407203	      2.86263478	     -9.87483113	      0.48925544	      1.03963281	      0.29068522	     -4.81684116	     -0.48281182	      1.55024359	    -19.09723286	      9.12382315	      4.53148974	     36.76406570	      9.24263013	     -0.35769021	     -0.15184271	    -36.50975300	      0.00000000	      0.00000000	      0.00000000	      0.00000000	      0.00913435	      0.00000000	      4.79703205	    -13.77549778	     -4.31639247	     14.06289916
